<?xml version="1.0" encoding="UTF-8"?>
<svg xmlns="http://www.w3.org/2000/svg" xmlns:xlink="http://www.w3.org/1999/xlink" width="743px" height="161px" viewBox="0 0 373 81" version="1.1">
<g id="surface1">
<path style=" stroke:none;fill-rule:evenodd;fill:rgb(3.921569%,4.313725%,3.529412%);fill-opacity:1;" d="M 166.070312 43.199219 C 166.363281 42.246094 166.757812 41.246094 167.25 40.320312 C 168.09375 38.714844 169.199219 37.339844 170.53125 36.164062 C 171.882812 34.972656 173.460938 34.058594 175.230469 33.414062 C 177.023438 32.75 178.992188 32.421875 181.085938 32.421875 C 182.90625 32.421875 184.699219 32.746094 186.421875 33.378906 C 188.140625 34 189.695312 34.890625 191.039062 36.015625 C 192.351562 37.125 193.441406 38.433594 194.277344 40.035156 C 194.789062 41.023438 195.171875 42.246094 195.414062 43.199219 Z M 201.667969 29.488281 L 201.664062 29.488281 C 199.476562 26.953125 196.648438 24.792969 193.261719 23.070312 C 189.835938 21.328125 185.738281 20.445312 181.085938 20.445312 C 177.128906 20.445312 173.402344 21.164062 170.003906 22.582031 C 166.609375 24.003906 163.609375 25.984375 161.089844 28.464844 C 158.5625 30.964844 156.578125 33.980469 155.15625 37.433594 C 153.75 40.875 153.054688 44.625 153.054688 48.574219 L 153.054688 51.132812 C 153.054688 55.449219 153.730469 59.4375 155.09375 62.992188 C 156.46875 66.59375 158.394531 69.730469 160.832031 72.3125 C 163.285156 74.929688 166.261719 76.988281 169.6875 78.421875 C 173.066406 79.832031 176.832031 80.550781 180.875 80.550781 C 188.132812 80.550781 194.019531 78.84375 198.386719 75.480469 C 200.839844 73.582031 202.898438 71.324219 204.496094 68.769531 L 205.242188 67.574219 L 194.394531 61.941406 L 193.753906 62.945312 C 193.074219 64.015625 192.1875 64.96875 191.113281 65.777344 C 190.003906 66.621094 188.621094 67.304688 186.996094 67.808594 C 185.363281 68.3125 183.375 68.566406 181.085938 68.566406 C 176.207031 68.566406 172.394531 67.082031 169.746094 64.308594 C 167.46875 61.917969 166.066406 58.761719 165.578125 54.949219 L 208.203125 54.949219 L 208.203125 46.222656 C 208.203125 43.65625 207.621094 40.839844 206.59375 37.855469 C 205.550781 34.847656 203.855469 32.03125 201.667969 29.488281 Z M 201.667969 29.488281 "/>
<path style=" stroke:none;fill-rule:evenodd;fill:rgb(3.921569%,4.313725%,3.529412%);fill-opacity:1;" d="M 124.074219 3.027344 L 123.964844 3.09375 C 122.078125 5.042969 121.046875 7.558594 121.046875 10.5 L 121.046875 21.917969 L 109.953125 21.917969 L 109.953125 33.667969 L 121.046875 33.667969 L 121.046875 79.085938 L 133.722656 79.085938 L 133.722656 33.667969 L 147.984375 33.667969 L 147.984375 21.917969 L 133.722656 21.917969 L 133.722656 13.070312 C 133.722656 11.902344 133.796875 11.753906 134.433594 11.753906 L 147.984375 11.753906 L 147.984375 0.00390625 L 131.445312 0.00390625 C 128.480469 0.00390625 126 1.0625 124.074219 3.027344 "/>
<path style=" stroke:none;fill-rule:evenodd;fill:rgb(3.921569%,4.313725%,3.529412%);fill-opacity:1;" d="M 12.660156 45.738281 L 44.984375 45.738281 L 44.984375 33.351562 L 12.660156 33.351562 L 12.660156 12.390625 L 48.152344 12.390625 L 48.152344 0.00390625 L 0.296875 0.00390625 L 0.296875 79.085938 L 48.152344 79.085938 L 48.152344 66.703125 L 12.660156 66.703125 L 12.660156 45.738281 "/>
<path style=" stroke:none;fill-rule:evenodd;fill:rgb(3.921569%,4.313725%,3.529412%);fill-opacity:1;" d="M 99.269531 49.183594 C 95.714844 46.484375 90.753906 44.910156 84.125 44.371094 C 78.703125 43.972656 74.976562 43.164062 73.066406 41.972656 C 71.417969 40.945312 70.679688 39.617188 70.679688 37.664062 C 70.679688 36.765625 70.898438 35.976562 71.328125 35.324219 C 71.808594 34.601562 72.472656 33.984375 73.300781 33.488281 C 74.1875 32.953125 75.246094 32.539062 76.441406 32.261719 C 77.671875 31.976562 78.988281 31.835938 80.347656 31.835938 C 83.738281 31.835938 86.484375 32.664062 88.515625 34.296875 C 90.082031 35.566406 91.097656 37.179688 91.617188 39.222656 L 91.855469 40.152344 L 103.617188 39.074219 L 103.390625 37.859375 C 103.039062 35.960938 102.398438 34.039062 101.492188 32.152344 C 100.425781 29.941406 98.890625 27.957031 96.925781 26.261719 C 94.976562 24.582031 92.554688 23.210938 89.730469 22.179688 C 86.890625 21.148438 83.589844 20.621094 79.921875 20.621094 C 77.257812 20.621094 74.683594 20.972656 72.269531 21.65625 C 69.804688 22.351562 67.550781 23.414062 65.558594 24.808594 C 63.527344 26.257812 61.929688 28.0625 60.742188 30.167969 C 59.515625 32.324219 58.929688 34.847656 58.929688 37.664062 L 58.929688 38.3125 C 58.929688 43.554688 60.796875 47.617188 64.550781 50.386719 C 68.089844 53.011719 73.144531 54.574219 79.601562 55.03125 C 84.570312 55.367188 88.144531 56.117188 90.242188 57.257812 C 92.015625 58.234375 92.800781 59.710938 92.800781 62.050781 C 92.800781 64.203125 91.933594 65.765625 90.074219 66.957031 C 88.003906 68.285156 85.164062 68.960938 81.628906 68.960938 C 77.496094 68.960938 74.175781 67.875 71.761719 65.738281 C 69.84375 64.035156 68.574219 61.820312 67.996094 59.152344 L 67.785156 58.183594 L 56.050781 59.261719 L 56.175781 60.398438 C 56.417969 62.625 57.011719 64.851562 57.945312 67.015625 C 59.039062 69.558594 60.679688 71.855469 62.816406 73.835938 C 64.949219 75.824219 67.632812 77.425781 70.789062 78.597656 C 73.925781 79.777344 77.71875 80.375 82.058594 80.375 C 85.277344 80.375 88.300781 79.972656 91.050781 79.179688 C 93.855469 78.375 96.292969 77.171875 98.304688 75.597656 C 100.316406 74.019531 101.953125 72.0625 103.109375 69.785156 C 104.269531 67.488281 104.882812 64.886719 104.882812 62.050781 L 104.882812 61.40625 C 104.882812 56.109375 102.976562 51.996094 99.269531 49.183594 "/>
<path style=" stroke:none;fill-rule:evenodd;fill:rgb(3.921569%,4.313725%,3.529412%);fill-opacity:1;" d="M 239.207031 23.210938 C 237.167969 24.363281 235.457031 25.972656 233.871094 27.890625 L 233.871094 21.917969 L 215.808594 21.917969 L 215.808594 33.667969 L 221.511719 33.667969 L 221.511719 79.085938 L 231.835938 79.085938 L 233.871094 79.035156 L 233.871094 49.859375 C 233.871094 47.175781 234.253906 44.726562 235.019531 42.578125 C 235.796875 40.410156 236.816406 38.609375 238.15625 37.078125 C 239.445312 35.601562 241.015625 34.429688 242.832031 33.625 C 244.652344 32.820312 246.6875 32.398438 248.894531 32.398438 L 252.570312 32.398438 L 252.570312 20.328125 L 249.75 20.328125 C 246.0625 20.328125 242.523438 21.335938 239.207031 23.210938 "/>
<path style=" stroke:none;fill-rule:evenodd;fill:rgb(3.921569%,4.313725%,3.529412%);fill-opacity:1;" d="M 300.210938 49.859375 L 300.210938 51.132812 C 300.210938 53.820312 299.851562 56.269531 299.082031 58.417969 C 298.304688 60.585938 297.292969 62.386719 295.953125 63.917969 C 294.667969 65.394531 293.101562 66.550781 291.28125 67.355469 C 289.464844 68.160156 287.429688 68.566406 285.222656 68.566406 C 280.78125 68.566406 277.09375 67.074219 274.34375 64.128906 C 271.554688 61.152344 270.101562 56.855469 270.101562 51.359375 L 270.101562 49.644531 C 270.101562 47.042969 270.535156 44.628906 271.308594 42.46875 C 272.0625 40.359375 273.140625 38.539062 274.484375 37.058594 C 275.816406 35.601562 277.417969 34.453125 279.21875 33.640625 C 281.011719 32.835938 283.035156 32.429688 285.222656 32.429688 C 287.339844 32.429688 289.335938 32.851562 291.152344 33.6875 C 292.992188 34.539062 294.601562 35.722656 295.929688 37.210938 C 297.277344 38.71875 298.316406 40.558594 299.082031 42.679688 C 299.847656 44.839844 300.210938 47.253906 300.210938 49.859375 Z M 302.285156 21.917969 L 300.210938 21.960938 L 300.210938 27.46875 C 298.625 25.65625 296.972656 24.191406 294.96875 23.097656 C 291.738281 21.339844 288.105469 20.445312 284.144531 20.445312 C 280.566406 20.445312 277.125 21.109375 273.890625 22.414062 C 270.648438 23.730469 267.78125 25.671875 265.355469 28.179688 C 262.9375 30.675781 260.9375 33.769531 259.558594 37.371094 C 258.195312 40.957031 257.425781 45.085938 257.425781 49.644531 L 257.425781 51.359375 C 257.425781 55.988281 258.195312 60.15625 259.5625 63.746094 C 260.9375 67.347656 262.902344 70.4375 265.324219 72.933594 C 267.761719 75.449219 270.664062 77.371094 273.902344 78.644531 C 277.109375 79.910156 280.636719 80.550781 284.359375 80.550781 C 288.046875 80.550781 291.574219 79.601562 294.890625 77.726562 C 296.929688 76.574219 298.625 75.023438 300.210938 73.105469 L 300.210938 79.085938 L 312.570312 79.085938 L 312.570312 21.917969 Z M 302.285156 21.917969 "/>
<path style=" stroke:none;fill-rule:evenodd;fill:rgb(83.921569%,13.72549%,16.470588%);fill-opacity:1;" d="M 324.929688 79.085938 L 372.789062 79.085938 L 372.789062 66.703125 L 324.929688 66.703125 Z M 324.929688 79.085938 "/>
</g>
</svg>
